# xmcd CD database file
#
# Track frame offsets:
#	150
#	11940
#	24495
#	40497
#	66677
#	87420
#	106517
#	120790
#	145315
#	174875
#	192492
#	209452
#	226420
#	234705
#	279130
#
# Disc length: 4086 seconds
#
# Revision: 0
# Processed by: cddbd v1.5.2PL0 Copyright (c) Steve Scherf et al.
# Submitted via: CDex 1.51
#
DISCID=ce0ff40f
DTITLE=jimmy copley - jimmy copley&friends slap my hand
DYEAR=2008
DGENRE=Blues
TTITLE0=Everyday I have the bluse
TTITLE1=Red Beanes and Rice
TTITLE2=Strange Brew
TTITLE3=Everything I've got
TTITLE4=You make it easy
TTITLE5=It's your thing
TTITLE6=Holdin' on
TTITLE7=J Blues
TTITLE8=East West Mardi Gras
TTITLE9=All Shook up
TTITLE10=Quick Lucky and Plucky
TTITLE11=Down Home Boy
TTITLE12=The Toucan
TTITLE13=Skanm it
TTITLE14=Forget it
EXTD=YEAR: 2008
EXTT0=
EXTT1=
EXTT2=
EXTT3=
EXTT4=
EXTT5=
EXTT6=
EXTT7=
EXTT8=
EXTT9=
EXTT10=
EXTT11=
EXTT12=
EXTT13=
EXTT14=
PLAYORDER=
